<?xml version="1.0" encoding="utf-8"?>
<!-- Generator: Adobe Illustrator 17.0.0, SVG Export Plug-In . SVG Version: 6.00 Build 0)  -->
<!DOCTYPE svg PUBLIC "-//W3C//DTD SVG 1.1//EN" "http://www.w3.org/Graphics/SVG/1.1/DTD/svg11.dtd">
<svg version="1.1" id="Layer_1" xmlns="http://www.w3.org/2000/svg" xmlns:xlink="http://www.w3.org/1999/xlink" x="0px" y="0px"
	 width="163.667px" height="95.667px" viewBox="0 0 163.667 95.667" enable-background="new 0 0 163.667 95.667"
	 xml:space="preserve">
<path d="M129.875,2.205c2.941,0,5.884-0.046,8.824,0.017c1.883,0.04,1.754,1.697,2.036,2.901
	c3.69,15.764,7.352,31.534,11.026,47.302c0.229,0.983,0.501,1.957,1.457,2.825c0-4.958,0.002-9.916-0.001-14.874
	c-0.006-9.479-0.098-18.96,0.017-28.438c0.05-4.132,0.439-8.211-5.837-8.67c0.238-0.277,0.476-0.555,0.714-0.832
	c4.657,0,9.313,0,13.97,0c-5.874,1.334-4.85,5.835-4.848,9.876c0.014,26.159,0.017,52.317-0.041,78.476
	c-0.003,1.228,0.966,3.192-1.23,3.537c-2.387,0.375-2.141-1.843-2.472-3.192c-4.802-19.569-9.546-39.152-14.308-58.732
	c-0.276-1.133-0.576-2.261-1.676-3.363c0,2.391,0,4.782,0,7.173c0.001,15.959,0.002,31.918,0.003,47.877
	c0,7.223-0.001,7.223,6.867,10.107c-11.247,0-21.72,0-32.194,0c4.2-1.937,4.458-5.414,4.114-9.114
	c-0.477-5.136-1.111-10.26-1.512-15.401c-0.148-1.895-0.974-2.343-2.71-2.417c-6.402-0.272-6.399-0.327-7.235,5.961
	c-0.553,4.161-1.126,8.32-1.656,12.484c-0.697,5.476-0.543,5.727,4.356,8.275c-10.368,0-20.737,0-31.105,0
	c4.244-1.853,4.217-5.496,3.912-9.124c-0.421-5.02-1.156-10.015-1.521-15.038c-0.154-2.115-1.059-2.668-2.937-2.525
	c-1.193,0.091-2.405,0.092-3.597-0.009c-1.97-0.167-2.703,0.652-2.922,2.629c-0.581,5.244-1.412,10.46-2.118,15.691
	c-0.726,5.384-0.455,5.859,4.316,8.384c-4.654,0-9.307,0-13.961,0c6.487-1.968,6.549-7.681,7.294-12.861
	c3.603-25.054,7.103-50.122,10.698-75.177c0.184-1.285-0.362-3.572,1.461-3.545c1.745,0.025,1.174,2.307,1.328,3.567
	c3.246,26.554,6.415,53.117,9.589,79.68c0.171,1.433,0.317,2.846,1.044,4.15c2.357,4.228,6.84,4.39,9.429,0.311
	c1.183-1.864,1.656-3.961,1.959-6.112c3.581-25.418,7.141-50.84,10.798-76.247c0.269-1.869-0.362-5.233,1.696-5.221
	c2.264,0.013,1.38,3.327,1.605,5.152c3.23,26.194,6.355,52.4,9.456,78.61c0.351,2.968,1.466,5.361,4.308,6.517
	c3.427,1.394,6.488-1.519,6.492-6.16c0.021-23.159,0.013-46.317,0.015-69.476c0-1.68-0.058-3.362,0.011-5.039
	c0.167-4.076,0.558-8.238-5.904-8.684C129.218,3.039,129.547,2.622,129.875,2.205z M111.012,34.155
	c-0.236-0.002-0.472-0.003-0.709-0.005c-1.342,9.704-2.673,19.409-4.037,29.11c-0.194,1.38,0.559,1.662,1.652,1.678
	c1.078,0.016,2.166-0.073,3.234,0.039c2.293,0.242,3.164-0.451,2.861-2.977C112.899,52.732,111.995,43.439,111.012,34.155z
	 M75.107,33.996c-0.231-0.008-0.462-0.016-0.694-0.024c-1.361,9.804-2.72,19.607-4.086,29.41c-0.155,1.115,0.439,1.528,1.421,1.545
	c1.437,0.025,2.876-0.047,4.31,0.017c1.515,0.068,2.214-0.478,2.044-2.084C77.086,53.241,76.102,43.618,75.107,33.996z"/>
<path d="M28.505,46.1c0.004,14.602-0.111,25.757-3.14,36.635c-0.839,3.011-1.841,5.971-3.589,8.595
	c-3.569,5.36-9.017,5.28-12.327-0.218c-2.956-4.91-4.251-10.4-5.277-15.964C0.647,56.041,1.099,36.955,4.578,17.904
	C5.334,13.768,6.607,9.758,8.553,6c1.268-2.449,2.846-4.275,6.024-4.327c3.343-0.055,5.425,1.479,6.906,4.223
	c3.839,7.115,5.176,14.898,6.021,22.8C28.245,35.621,28.541,42.57,28.505,46.1z M19.105,48.08c0-11.993,0.022-23.985-0.012-35.978
	c-0.012-4.27-1.792-7.586-3.912-7.09c-3.625,0.847-3.669,4.062-3.675,6.943c-0.046,24.225-0.028,48.45-0.027,72.675
	c0,1.689,0.113,3.366,0.932,4.896c0.642,1.197,1.432,2.302,2.97,2.253c1.358-0.044,2.096-1.064,2.694-2.125
	c1.043-1.854,1.03-3.913,1.031-5.955C19.111,71.825,19.109,59.953,19.105,48.08z"/>
<path d="M51.842,11.764c0.161-2.988,0.321-5.976,0.482-8.965c0.258,0.013,0.517,0.026,0.775,0.039c0,9.151,0,18.303,0,28.121
	c-1.801-1.766-1.443-3.409-1.67-4.841c-0.978-6.159-1.881-12.341-4.758-17.983c-0.787-1.543-1.536-3.604-3.83-3.079
	c-2.041,0.467-2.503,2.437-2.816,4.227c-0.205,1.169-0.171,2.387-0.171,3.583c-0.011,23.379-0.009,46.759-0.018,70.138
	c-0.001,2.045-0.025,4.086,0.901,5.986c0.611,1.255,1.534,2.196,2.968,2.331c1.528,0.144,2.389-0.938,3.12-2.064
	c1.027-1.581,1.09-3.379,1.088-5.197c-0.011-8.393-0.143-16.789,0.075-25.176c0.093-3.563-0.684-6.113-4.426-7.53
	c5.019,0,10.037,0,15.056,0c-5.097,1.29-3.824,5.375-3.832,8.843c-0.023,10.071,0.007,20.142,0.016,30.212
	c0.001,1.148,0,2.295-0.405,3.484c-1.936-2.425-1.246-5.48-2.227-8.787c-1.451,3.022-2.252,5.752-4.306,7.751
	c-2.92,2.843-5.524,2.885-8.309-0.123c-2.329-2.515-3.645-5.613-4.615-8.852c-2.356-7.868-3.259-15.979-3.546-24.132
	c-0.547-15.487-0.22-30.933,3.641-46.083c0.772-3.029,1.74-5.995,3.476-8.634c2.524-3.837,5.286-4.091,8.52-0.83
	C49.152,6.344,50.066,9.205,51.842,11.764z"/>
</svg>
